<svg xmlns="http://www.w3.org/2000/svg" xmlns:xlink="http://www.w3.org/1999/xlink" width="500" zoomAndPan="magnify" viewBox="0 0 375 374.999991" height="500" preserveAspectRatio="xMidYMid meet" version="1.0"><defs><g/><clipPath id="20a068dd6e"><path d="M 19.757812 197.476562 L 37.757812 197.476562 L 37.757812 215.476562 L 19.757812 215.476562 Z M 19.757812 197.476562 " clip-rule="nonzero"/></clipPath><clipPath id="fe87b7b06b"><path d="M 25.308594 215.21875 L 60.558594 215.21875 L 60.558594 250.46875 L 25.308594 250.46875 Z M 25.308594 215.21875 " clip-rule="nonzero"/></clipPath><clipPath id="898aa0196d"><path d="M 337.5 144.242188 L 355.5 144.242188 L 355.5 162 L 337.5 162 Z M 337.5 144.242188 " clip-rule="nonzero"/></clipPath><clipPath id="72e68baf70"><path d="M 316.6875 111.785156 L 351.9375 111.785156 L 351.9375 147.035156 L 316.6875 147.035156 Z M 316.6875 111.785156 " clip-rule="nonzero"/></clipPath></defs><path stroke-linecap="butt" transform="matrix(1.277419, 0, 0, 1.277419, 25.243818, 120.22798)" fill="none" stroke-linejoin="miter" d="M 48.748164 66.074533 C 48.748164 67.945983 48.057073 69.569742 46.677948 70.948866 C 45.311056 72.315758 43.693414 73.000733 41.821963 73.000733 L 16.471765 73.000733 L 16.471765 59.148333 L 34.895763 59.148333 L 34.895763 54.576735 L 23.397965 54.576735 C 21.526515 54.576735 19.902757 53.894818 18.523633 52.527926 C 17.156741 51.145744 16.471765 49.521985 16.471765 47.650535 L 16.471765 29.229595 C 16.471765 27.358145 17.156741 25.737445 18.523633 24.370552 C 19.902757 22.991428 21.526515 22.303395 23.397965 22.303395 L 46.913409 22.303395 L 46.913409 36.155795 L 30.324166 36.155795 L 30.324166 40.724335 L 41.821963 40.724335 C 43.693414 40.724335 45.311056 41.415426 46.677948 42.79455 C 48.057073 44.161443 48.748164 45.779085 48.748164 47.650535 Z M 90.161642 73.000733 L 76.379574 73.000733 L 67.169104 53.913166 L 67.169104 73.000733 L 53.316704 73.000733 L 53.316704 22.303395 L 67.169104 22.303395 L 76.379574 41.390963 L 76.379574 22.303395 L 90.161642 22.303395 Z M 113.151122 45.366265 L 113.151122 36.155795 L 108.582582 36.155795 L 108.582582 45.366265 Z M 127.003522 52.292465 C 127.003522 54.163916 126.315489 55.775442 124.936365 57.133161 C 123.566414 58.47559 121.948772 59.148333 120.077322 59.148333 L 108.582582 59.148333 L 108.582582 73.000733 L 94.727124 73.000733 L 94.727124 22.303395 L 120.077322 22.303395 C 121.948772 22.303395 123.566414 22.991428 124.936365 24.370552 C 126.315489 25.737445 127.003522 27.358145 127.003522 29.229595 Z M 163.84846 73.000733 L 131.572062 73.000733 L 131.572062 22.303395 L 163.84846 22.303395 L 163.84846 36.155795 L 145.424462 36.155795 L 145.424462 40.724335 L 159.20653 40.724335 L 159.20653 54.576735 L 145.424462 54.576735 L 145.424462 59.148333 L 163.84846 59.148333 Z M 186.83794 50.008196 L 186.83794 36.155795 L 182.2694 36.155795 L 182.2694 50.008196 Z M 200.69034 73.000733 L 186.83794 73.000733 L 186.83794 63.790263 L 182.2694 63.790263 L 182.2694 73.000733 L 168.417 73.000733 L 168.417 29.229595 C 168.417 27.358145 169.098917 25.737445 170.46581 24.370552 C 171.844934 22.991428 173.47175 22.303395 175.3432 22.303395 L 193.76414 22.303395 C 195.63559 22.303395 197.256291 22.991428 198.623183 24.370552 C 200.002307 25.737445 200.69034 27.358145 200.69034 29.229595 Z M 237.535279 73.000733 L 223.682878 73.000733 L 223.682878 54.576735 L 219.11128 54.576735 L 219.11128 73.000733 L 205.25888 73.000733 L 205.25888 22.303395 L 219.11128 22.303395 L 219.11128 40.724335 L 223.682878 40.724335 L 223.682878 22.303395 L 237.535279 22.303395 L 237.535279 40.724335 C 237.535279 42.595785 236.844188 44.219544 235.465063 45.598668 C 234.098171 46.968618 232.480529 47.650535 230.609078 47.650535 C 232.480529 47.650535 234.098171 48.341626 235.465063 49.720751 C 236.844188 51.087643 237.535279 52.705285 237.535279 54.576735 Z M 237.535279 73.000733 " stroke="#eeeae1" stroke-width="7.3693" stroke-opacity="1" stroke-miterlimit="4"/><g fill="#eeeae1" fill-opacity="1"><g transform="translate(43.367193, 213.479532)"><g><path d="M 44.15625 -8.84375 C 44.15625 -6.457031 43.273438 -4.382812 41.515625 -2.625 C 39.753906 -0.875 37.679688 0 35.296875 0 L 2.921875 0 L 2.921875 -17.703125 L 26.453125 -17.703125 L 26.453125 -23.53125 L 11.765625 -23.53125 C 9.378906 -23.53125 7.304688 -24.410156 5.546875 -26.171875 C 3.796875 -27.929688 2.921875 -30.003906 2.921875 -32.390625 L 2.921875 -55.921875 C 2.921875 -58.304688 3.796875 -60.375 5.546875 -62.125 C 7.304688 -63.882812 9.378906 -64.765625 11.765625 -64.765625 L 41.796875 -64.765625 L 41.796875 -47.0625 L 20.609375 -47.0625 L 20.609375 -41.234375 L 35.296875 -41.234375 C 37.679688 -41.234375 39.753906 -40.351562 41.515625 -38.59375 C 43.273438 -36.84375 44.15625 -34.773438 44.15625 -32.390625 Z M 44.15625 -8.84375 "/></g></g></g><g fill="#eeeae1" fill-opacity="1"><g transform="translate(90.432121, 213.479532)"><g><path d="M 49.984375 0 L 32.390625 0 L 20.609375 -24.375 L 20.609375 0 L 2.921875 0 L 2.921875 -64.765625 L 20.609375 -64.765625 L 32.390625 -40.390625 L 32.390625 -64.765625 L 49.984375 -64.765625 Z M 49.984375 0 "/></g></g></g><g fill="#eeeae1" fill-opacity="1"><g transform="translate(143.333087, 213.479532)"><g><path d="M 26.453125 -35.296875 L 26.453125 -47.0625 L 20.609375 -47.0625 L 20.609375 -35.296875 Z M 44.15625 -26.453125 C 44.15625 -24.066406 43.273438 -22.007812 41.515625 -20.28125 C 39.753906 -18.5625 37.679688 -17.703125 35.296875 -17.703125 L 20.609375 -17.703125 L 20.609375 0 L 2.921875 0 L 2.921875 -64.765625 L 35.296875 -64.765625 C 37.679688 -64.765625 39.753906 -63.882812 41.515625 -62.125 C 43.273438 -60.375 44.15625 -58.304688 44.15625 -55.921875 Z M 44.15625 -26.453125 "/></g></g></g><g fill="#eeeae1" fill-opacity="1"><g transform="translate(190.398015, 213.479532)"><g><path d="M 44.15625 0 L 2.921875 0 L 2.921875 -64.765625 L 44.15625 -64.765625 L 44.15625 -47.0625 L 20.609375 -47.0625 L 20.609375 -41.234375 L 38.21875 -41.234375 L 38.21875 -23.53125 L 20.609375 -23.53125 L 20.609375 -17.703125 L 44.15625 -17.703125 Z M 44.15625 0 "/></g></g></g><g fill="#eeeae1" fill-opacity="1"><g transform="translate(237.462943, 213.479532)"><g><path d="M 26.453125 -29.375 L 26.453125 -47.0625 L 20.609375 -47.0625 L 20.609375 -29.375 Z M 44.15625 0 L 26.453125 0 L 26.453125 -11.765625 L 20.609375 -11.765625 L 20.609375 0 L 2.921875 0 L 2.921875 -55.921875 C 2.921875 -58.304688 3.796875 -60.375 5.546875 -62.125 C 7.304688 -63.882812 9.378906 -64.765625 11.765625 -64.765625 L 35.296875 -64.765625 C 37.679688 -64.765625 39.753906 -63.882812 41.515625 -62.125 C 43.273438 -60.375 44.15625 -58.304688 44.15625 -55.921875 Z M 44.15625 0 "/></g></g></g><g fill="#eeeae1" fill-opacity="1"><g transform="translate(284.527871, 213.479532)"><g><path d="M 44.15625 0 L 26.453125 0 L 26.453125 -23.53125 L 20.609375 -23.53125 L 20.609375 0 L 2.921875 0 L 2.921875 -64.765625 L 20.609375 -64.765625 L 20.609375 -41.234375 L 26.453125 -41.234375 L 26.453125 -64.765625 L 44.15625 -64.765625 L 44.15625 -41.234375 C 44.15625 -38.847656 43.273438 -36.773438 41.515625 -35.015625 C 39.753906 -33.265625 37.679688 -32.390625 35.296875 -32.390625 C 37.679688 -32.390625 39.753906 -31.507812 41.515625 -29.75 C 43.273438 -27.988281 44.15625 -25.914062 44.15625 -23.53125 Z M 44.15625 0 "/></g></g></g><path stroke-linecap="butt" transform="matrix(1.277419, 0, 0, 1.277419, 27.224613, 111.244505)" fill="none" stroke-linejoin="miter" d="M 43.904155 66.073829 C 43.904155 67.945279 43.213064 69.569037 41.83394 70.948162 C 40.467048 72.315054 38.849405 73.000029 36.977955 73.000029 L 11.627757 73.000029 L 11.627757 59.147629 L 30.051755 59.147629 L 30.051755 54.576031 L 18.553957 54.576031 C 16.682507 54.576031 15.058749 53.894114 13.679625 52.527221 C 12.312732 51.148097 11.627757 49.521281 11.627757 47.649831 L 11.627757 29.228891 C 11.627757 27.357441 12.312732 25.739799 13.679625 24.369848 C 15.058749 22.990724 16.682507 22.302691 18.553957 22.302691 L 42.0694 22.302691 L 42.0694 36.155091 L 25.480157 36.155091 L 25.480157 40.723631 L 36.977955 40.723631 C 38.849405 40.723631 40.467048 41.414722 41.83394 42.793846 C 43.213064 44.160739 43.904155 45.781439 43.904155 47.649831 Z M 85.317634 73.000029 L 71.535566 73.000029 L 62.325096 53.912461 L 62.325096 73.000029 L 48.472695 73.000029 L 48.472695 22.302691 L 62.325096 22.302691 L 71.535566 41.390259 L 71.535566 22.302691 L 85.317634 22.302691 Z M 108.307114 45.365561 L 108.307114 36.155091 L 103.738574 36.155091 L 103.738574 45.365561 Z M 122.159514 52.291761 C 122.159514 54.163211 121.471481 55.777796 120.092356 57.132457 C 118.722406 58.474886 117.104764 59.147629 115.233314 59.147629 L 103.738574 59.147629 L 103.738574 73.000029 L 89.886173 73.000029 L 89.886173 22.302691 L 115.233314 22.302691 C 117.104764 22.302691 118.722406 22.990724 120.092356 24.369848 C 121.471481 25.739799 122.159514 27.357441 122.159514 29.228891 Z M 159.004452 73.000029 L 126.728054 73.000029 L 126.728054 22.302691 L 159.004452 22.302691 L 159.004452 36.155091 L 140.580454 36.155091 L 140.580454 40.723631 L 154.362522 40.723631 L 154.362522 54.576031 L 140.580454 54.576031 L 140.580454 59.147629 L 159.004452 59.147629 Z M 181.993932 50.007491 L 181.993932 36.155091 L 177.425392 36.155091 L 177.425392 50.007491 Z M 195.846332 73.000029 L 181.993932 73.000029 L 181.993932 63.789559 L 177.425392 63.789559 L 177.425392 73.000029 L 163.572992 73.000029 L 163.572992 29.228891 C 163.572992 27.357441 164.254909 25.739799 165.621802 24.369848 C 167.003984 22.990724 168.627742 22.302691 170.499192 22.302691 L 188.920132 22.302691 C 190.791582 22.302691 192.412282 22.990724 193.779175 24.369848 C 195.158299 25.739799 195.846332 27.357441 195.846332 29.228891 Z M 232.69127 73.000029 L 218.83887 73.000029 L 218.83887 54.576031 L 214.27033 54.576031 L 214.27033 73.000029 L 200.414872 73.000029 L 200.414872 22.302691 L 214.27033 22.302691 L 214.27033 40.723631 L 218.83887 40.723631 L 218.83887 22.302691 L 232.69127 22.302691 L 232.69127 40.723631 C 232.69127 42.595081 232.003237 44.221897 230.621055 45.601021 C 229.254163 46.967914 227.63652 47.649831 225.76507 47.649831 C 227.63652 47.649831 229.254163 48.340922 230.621055 49.720046 C 232.003237 51.086939 232.69127 52.707639 232.69127 54.576031 Z M 232.69127 73.000029 " stroke="#eeeae1" stroke-width="7.3693" stroke-opacity="1" stroke-miterlimit="4"/><g fill="#1e1c1c" fill-opacity="1"><g transform="translate(39.160492, 204.496056)"><g><path d="M 44.15625 -8.84375 C 44.15625 -6.457031 43.273438 -4.382812 41.515625 -2.625 C 39.753906 -0.875 37.679688 0 35.296875 0 L 2.921875 0 L 2.921875 -17.703125 L 26.453125 -17.703125 L 26.453125 -23.53125 L 11.765625 -23.53125 C 9.378906 -23.53125 7.304688 -24.410156 5.546875 -26.171875 C 3.796875 -27.929688 2.921875 -30.003906 2.921875 -32.390625 L 2.921875 -55.921875 C 2.921875 -58.304688 3.796875 -60.375 5.546875 -62.125 C 7.304688 -63.882812 9.378906 -64.765625 11.765625 -64.765625 L 41.796875 -64.765625 L 41.796875 -47.0625 L 20.609375 -47.0625 L 20.609375 -41.234375 L 35.296875 -41.234375 C 37.679688 -41.234375 39.753906 -40.351562 41.515625 -38.59375 C 43.273438 -36.84375 44.15625 -34.773438 44.15625 -32.390625 Z M 44.15625 -8.84375 "/></g></g></g><g fill="#1e1c1c" fill-opacity="1"><g transform="translate(86.22542, 204.496056)"><g><path d="M 49.984375 0 L 32.390625 0 L 20.609375 -24.375 L 20.609375 0 L 2.921875 0 L 2.921875 -64.765625 L 20.609375 -64.765625 L 32.390625 -40.390625 L 32.390625 -64.765625 L 49.984375 -64.765625 Z M 49.984375 0 "/></g></g></g><g fill="#1e1c1c" fill-opacity="1"><g transform="translate(139.126385, 204.496056)"><g><path d="M 26.453125 -35.296875 L 26.453125 -47.0625 L 20.609375 -47.0625 L 20.609375 -35.296875 Z M 44.15625 -26.453125 C 44.15625 -24.066406 43.273438 -22.007812 41.515625 -20.28125 C 39.753906 -18.5625 37.679688 -17.703125 35.296875 -17.703125 L 20.609375 -17.703125 L 20.609375 0 L 2.921875 0 L 2.921875 -64.765625 L 35.296875 -64.765625 C 37.679688 -64.765625 39.753906 -63.882812 41.515625 -62.125 C 43.273438 -60.375 44.15625 -58.304688 44.15625 -55.921875 Z M 44.15625 -26.453125 "/></g></g></g><g fill="#1e1c1c" fill-opacity="1"><g transform="translate(186.191313, 204.496056)"><g><path d="M 44.15625 0 L 2.921875 0 L 2.921875 -64.765625 L 44.15625 -64.765625 L 44.15625 -47.0625 L 20.609375 -47.0625 L 20.609375 -41.234375 L 38.21875 -41.234375 L 38.21875 -23.53125 L 20.609375 -23.53125 L 20.609375 -17.703125 L 44.15625 -17.703125 Z M 44.15625 0 "/></g></g></g><g fill="#1e1c1c" fill-opacity="1"><g transform="translate(233.256241, 204.496056)"><g><path d="M 26.453125 -29.375 L 26.453125 -47.0625 L 20.609375 -47.0625 L 20.609375 -29.375 Z M 44.15625 0 L 26.453125 0 L 26.453125 -11.765625 L 20.609375 -11.765625 L 20.609375 0 L 2.921875 0 L 2.921875 -55.921875 C 2.921875 -58.304688 3.796875 -60.375 5.546875 -62.125 C 7.304688 -63.882812 9.378906 -64.765625 11.765625 -64.765625 L 35.296875 -64.765625 C 37.679688 -64.765625 39.753906 -63.882812 41.515625 -62.125 C 43.273438 -60.375 44.15625 -58.304688 44.15625 -55.921875 Z M 44.15625 0 "/></g></g></g><g fill="#1e1c1c" fill-opacity="1"><g transform="translate(280.321169, 204.496056)"><g><path d="M 44.15625 0 L 26.453125 0 L 26.453125 -23.53125 L 20.609375 -23.53125 L 20.609375 0 L 2.921875 0 L 2.921875 -64.765625 L 20.609375 -64.765625 L 20.609375 -41.234375 L 26.453125 -41.234375 L 26.453125 -64.765625 L 44.15625 -64.765625 L 44.15625 -41.234375 C 44.15625 -38.847656 43.273438 -36.773438 41.515625 -35.015625 C 39.753906 -33.265625 37.679688 -32.390625 35.296875 -32.390625 C 37.679688 -32.390625 39.753906 -31.507812 41.515625 -29.75 C 43.273438 -27.988281 44.15625 -25.914062 44.15625 -23.53125 Z M 44.15625 0 "/></g></g></g><g fill="#eeeae1" fill-opacity="1"><g transform="translate(105.162347, 248.511545)"><g><path d="M 9.15625 0.421875 C 7.644531 0.421875 6.234375 0.269531 4.921875 -0.03125 C 3.617188 -0.332031 2.632812 -0.671875 1.96875 -1.046875 L 1.96875 -5.71875 C 2.789062 -5.269531 3.867188 -4.863281 5.203125 -4.5 C 6.546875 -4.132812 7.875 -3.953125 9.1875 -3.953125 C 9.71875 -3.953125 10.101562 -4.023438 10.34375 -4.171875 C 10.582031 -4.328125 10.703125 -4.53125 10.703125 -4.78125 C 10.703125 -5.164062 10.441406 -5.445312 9.921875 -5.625 C 9.410156 -5.8125 8.570312 -6.003906 7.40625 -6.203125 C 6.101562 -6.410156 5.023438 -6.640625 4.171875 -6.890625 C 3.328125 -7.140625 2.59375 -7.539062 1.96875 -8.09375 C 1.351562 -8.65625 1.046875 -9.421875 1.046875 -10.390625 C 1.046875 -11.265625 1.300781 -12.046875 1.8125 -12.734375 C 2.320312 -13.421875 3.128906 -13.960938 4.234375 -14.359375 C 5.335938 -14.765625 6.734375 -14.96875 8.421875 -14.96875 C 9.972656 -14.96875 11.394531 -14.804688 12.6875 -14.484375 C 13.988281 -14.171875 14.957031 -13.8125 15.59375 -13.40625 L 15.59375 -8.53125 C 14.863281 -9.050781 13.804688 -9.523438 12.421875 -9.953125 C 11.035156 -10.390625 9.5625 -10.609375 8 -10.609375 C 7.4375 -10.609375 7.035156 -10.535156 6.796875 -10.390625 C 6.566406 -10.242188 6.453125 -10.03125 6.453125 -9.75 C 6.453125 -9.40625 6.695312 -9.148438 7.1875 -8.984375 C 7.675781 -8.816406 8.460938 -8.648438 9.546875 -8.484375 C 10.859375 -8.273438 11.953125 -8.039062 12.828125 -7.78125 C 13.710938 -7.53125 14.484375 -7.097656 15.140625 -6.484375 C 15.796875 -5.878906 16.125 -5.035156 16.125 -3.953125 C 16.125 -2.660156 15.550781 -1.609375 14.40625 -0.796875 C 13.257812 0.015625 11.507812 0.421875 9.15625 0.421875 Z M 9.15625 0.421875 "/></g></g></g><g fill="#eeeae1" fill-opacity="1"><g transform="translate(124.393595, 248.511545)"><g><path d="M 6.546875 0 L 1.5625 0 L 1.5625 -14.5625 L 9.875 -14.5625 L 14.03125 -4.890625 L 14.25 -4.890625 L 14.25 -14.5625 L 19.234375 -14.5625 L 19.234375 0 L 10.921875 0 L 6.765625 -9.671875 L 6.546875 -9.671875 Z M 6.546875 0 "/></g></g></g><g fill="#eeeae1" fill-opacity="1"><g transform="translate(147.262932, 248.511545)"><g><path d="M 6.765625 -6.03125 L 6.765625 -3.84375 L 15.078125 -3.84375 L 15.078125 0 L 1.5625 0 L 1.5625 -14.5625 L 14.65625 -14.5625 L 14.65625 -10.703125 L 6.765625 -10.703125 L 6.765625 -8.421875 L 13.828125 -8.421875 L 13.828125 -6.03125 Z M 6.765625 -6.03125 "/></g></g></g><g fill="#eeeae1" fill-opacity="1"><g transform="translate(165.350782, 248.511545)"><g><path d="M 20.375 0 L 14.5625 0 L 13.375 -2.703125 L 7.015625 -2.703125 L 5.828125 0 L 0 0 L 6.765625 -14.5625 L 13.625 -14.5625 Z M 10.09375 -9.671875 L 8.0625 -5.09375 L 12.3125 -5.09375 L 10.296875 -9.671875 Z M 10.09375 -9.671875 "/></g></g></g><g fill="#eeeae1" fill-opacity="1"><g transform="translate(187.80434, 248.511545)"><g><path d="M 6.765625 0 L 1.5625 0 L 1.5625 -14.5625 L 6.765625 -14.5625 L 6.765625 -8.5 L 6.859375 -8.5 L 13 -14.5625 L 19.65625 -14.5625 L 12.265625 -7.59375 L 12.265625 -7.484375 L 19.03125 0 L 12.484375 0 L 6.859375 -6.328125 L 6.765625 -6.328125 Z M 6.765625 0 "/></g></g></g><g fill="#eeeae1" fill-opacity="1"><g transform="translate(209.114497, 248.511545)"><g><path d="M 6.765625 -6.03125 L 6.765625 -3.84375 L 15.078125 -3.84375 L 15.078125 0 L 1.5625 0 L 1.5625 -14.5625 L 14.65625 -14.5625 L 14.65625 -10.703125 L 6.765625 -10.703125 L 6.765625 -8.421875 L 13.828125 -8.421875 L 13.828125 -6.03125 Z M 6.765625 -6.03125 "/></g></g></g><g fill="#eeeae1" fill-opacity="1"><g transform="translate(227.20234, 248.511545)"><g><path d="M 13.625 -6.03125 C 14.84375 -6.03125 15.769531 -5.742188 16.40625 -5.171875 C 17.039062 -4.609375 17.359375 -3.820312 17.359375 -2.8125 L 17.359375 0 L 12.171875 0 L 12.171875 -3.125 C 12.171875 -3.46875 12.039062 -3.742188 11.78125 -3.953125 C 11.519531 -4.160156 11.128906 -4.265625 10.609375 -4.265625 L 6.765625 -4.265625 L 6.765625 0 L 1.5625 0 L 1.5625 -14.5625 L 11.546875 -14.5625 C 12.984375 -14.5625 14.179688 -14.363281 15.140625 -13.96875 C 16.109375 -13.582031 16.820312 -13.050781 17.28125 -12.375 C 17.75 -11.707031 17.984375 -10.945312 17.984375 -10.09375 C 17.984375 -8.925781 17.597656 -7.988281 16.828125 -7.28125 C 16.066406 -6.582031 15 -6.234375 13.625 -6.234375 Z M 10.390625 -7.28125 C 11.171875 -7.28125 11.726562 -7.414062 12.0625 -7.6875 C 12.40625 -7.96875 12.578125 -8.382812 12.578125 -8.9375 C 12.578125 -9.5 12.40625 -9.914062 12.0625 -10.1875 C 11.726562 -10.46875 11.171875 -10.609375 10.390625 -10.609375 L 6.765625 -10.609375 L 6.765625 -7.28125 Z M 10.390625 -7.28125 "/></g></g></g><g clip-path="url(#20a068dd6e)"><path fill="#f1efe7" d="M 28.625 197.476562 C 27.757812 204.777344 27.058594 205.476562 19.757812 206.34375 C 19.773438 206.34375 19.789062 206.347656 19.804688 206.347656 C 27.0625 207.210938 27.761719 207.921875 28.625 215.207031 C 29.488281 207.90625 30.1875 207.207031 37.488281 206.34375 C 30.1875 205.476562 29.488281 204.777344 28.625 197.476562 Z M 28.625 197.476562 " fill-opacity="1" fill-rule="nonzero"/></g><g clip-path="url(#fe87b7b06b)"><path fill="#f1efe7" d="M 43.042969 215.21875 C 41.316406 229.824219 39.914062 231.226562 25.308594 232.953125 C 25.339844 232.957031 25.367188 232.960938 25.398438 232.964844 C 39.917969 234.691406 41.320312 236.117188 43.042969 250.691406 C 44.773438 236.085938 46.175781 234.683594 60.78125 232.953125 C 46.175781 231.226562 44.773438 229.824219 43.042969 215.21875 Z M 43.042969 215.21875 " fill-opacity="1" fill-rule="nonzero"/></g><g clip-path="url(#898aa0196d)"><path fill="#f1efe7" d="M 346.363281 144.242188 C 345.5 151.542969 344.800781 152.242188 337.5 153.105469 C 337.515625 153.109375 337.53125 153.109375 337.546875 153.113281 C 344.804688 153.972656 345.503906 154.6875 346.363281 161.972656 C 347.230469 154.671875 347.929688 153.972656 355.230469 153.105469 C 347.929688 152.242188 347.230469 151.542969 346.363281 144.242188 Z M 346.363281 144.242188 " fill-opacity="1" fill-rule="nonzero"/></g><g clip-path="url(#72e68baf70)"><path fill="#f1efe7" d="M 334.421875 111.785156 C 332.695312 126.390625 331.292969 127.792969 316.6875 129.523438 C 316.714844 129.523438 316.746094 129.527344 316.777344 129.53125 C 331.296875 131.257812 332.695312 132.683594 334.421875 147.257812 C 336.152344 132.652344 337.550781 131.25 352.160156 129.523438 C 337.550781 127.792969 336.152344 126.390625 334.421875 111.785156 Z M 334.421875 111.785156 " fill-opacity="1" fill-rule="nonzero"/></g></svg>