<svg xmlns="http://www.w3.org/2000/svg" xmlns:xlink="http://www.w3.org/1999/xlink" width="500" zoomAndPan="magnify" viewBox="0 0 375 374.999991" height="500" preserveAspectRatio="xMidYMid meet" version="1.0"><defs><g/><clipPath id="79c6783aa3"><path d="M 19.757812 197.476562 L 37.757812 197.476562 L 37.757812 215.476562 L 19.757812 215.476562 Z M 19.757812 197.476562 " clip-rule="nonzero"/></clipPath><clipPath id="b7b8a7be31"><path d="M 25.308594 215.21875 L 60.558594 215.21875 L 60.558594 250.46875 L 25.308594 250.46875 Z M 25.308594 215.21875 " clip-rule="nonzero"/></clipPath><clipPath id="ac5089d005"><path d="M 337.5 144.242188 L 355.5 144.242188 L 355.5 162 L 337.5 162 Z M 337.5 144.242188 " clip-rule="nonzero"/></clipPath><clipPath id="a7ba5f45e5"><path d="M 316.6875 111.785156 L 351.9375 111.785156 L 351.9375 147.035156 L 316.6875 147.035156 Z M 316.6875 111.785156 " clip-rule="nonzero"/></clipPath></defs><path stroke-linecap="butt" transform="matrix(1.277419, 0, 0, 1.277419, 25.307676, 123.351978)" fill="none" stroke-linejoin="miter" d="M 52.621491 66.07226 C 52.621491 67.94371 51.933458 69.570526 50.554334 70.94965 C 49.187442 72.316543 47.566741 73.001518 45.695291 73.001518 L 20.348151 73.001518 L 20.348151 59.14606 L 38.769091 59.14606 L 38.769091 54.57752 L 27.274351 54.57752 C 25.402901 54.57752 23.776085 53.892544 22.396961 52.525652 C 21.030068 51.146528 20.348151 49.52277 20.348151 47.65132 L 20.348151 29.227322 C 20.348151 27.358929 21.030068 25.738229 22.396961 24.371337 C 23.776085 22.992212 25.402901 22.301121 27.274351 22.301121 L 50.786736 22.301121 L 50.786736 36.153522 L 34.200551 36.153522 L 34.200551 40.725119 L 45.695291 40.725119 C 47.566741 40.725119 49.187442 41.413153 50.554334 42.792277 C 51.933458 44.162227 52.621491 45.779869 52.621491 47.65132 Z M 94.03497 73.001518 L 80.25596 73.001518 L 71.04549 53.910892 L 71.04549 73.001518 L 57.190031 73.001518 L 57.190031 22.301121 L 71.04549 22.301121 L 80.25596 41.391747 L 80.25596 22.301121 L 94.03497 22.301121 Z M 117.027508 45.36705 L 117.027508 36.153522 L 112.45591 36.153522 L 112.45591 45.36705 Z M 130.879908 52.29325 C 130.879908 54.1647 130.188817 55.776226 128.809693 57.130887 C 127.4428 58.476374 125.8221 59.14606 123.953708 59.14606 L 112.45591 59.14606 L 112.45591 73.001518 L 98.60351 73.001518 L 98.60351 22.301121 L 123.953708 22.301121 C 125.8221 22.301121 127.4428 22.992212 128.809693 24.371337 C 130.188817 25.738229 130.879908 27.358929 130.879908 29.227322 Z M 167.721788 73.001518 L 135.448448 73.001518 L 135.448448 22.301121 L 167.721788 22.301121 L 167.721788 36.153522 L 149.300848 36.153522 L 149.300848 40.725119 L 163.079858 40.725119 L 163.079858 54.57752 L 149.300848 54.57752 L 149.300848 59.14606 L 167.721788 59.14606 Z M 190.714326 50.00898 L 190.714326 36.153522 L 186.142728 36.153522 L 186.142728 50.00898 Z M 204.566726 73.001518 L 190.714326 73.001518 L 190.714326 63.78799 L 186.142728 63.78799 L 186.142728 73.001518 L 172.290328 73.001518 L 172.290328 29.227322 C 172.290328 27.358929 172.975303 25.738229 174.342196 24.371337 C 175.72132 22.992212 177.345078 22.301121 179.216528 22.301121 L 197.640526 22.301121 C 199.511976 22.301121 201.129618 22.992212 202.496511 24.371337 C 203.875635 25.738229 204.566726 27.358929 204.566726 29.227322 Z M 241.411664 73.001518 L 227.556206 73.001518 L 227.556206 54.57752 L 222.987666 54.57752 L 222.987666 73.001518 L 209.135266 73.001518 L 209.135266 22.301121 L 222.987666 22.301121 L 222.987666 40.725119 L 227.556206 40.725119 L 227.556206 22.301121 L 241.411664 22.301121 L 241.411664 40.725119 C 241.411664 42.59657 240.720573 44.220328 239.341449 45.599452 C 237.974557 46.966344 236.353856 47.65132 234.482406 47.65132 C 236.353856 47.65132 237.974557 48.339353 239.341449 49.718477 C 240.720573 51.088427 241.411664 52.70607 241.411664 54.57752 Z M 241.411664 73.001518 " stroke="#1e1c1c" stroke-width="7.3693" stroke-opacity="1" stroke-miterlimit="4"/><g fill="#1e1c1c" fill-opacity="1"><g transform="translate(48.381048, 216.60353)"><g><path d="M 44.15625 -8.84375 C 44.15625 -6.457031 43.273438 -4.382812 41.515625 -2.625 C 39.753906 -0.875 37.679688 0 35.296875 0 L 2.921875 0 L 2.921875 -17.703125 L 26.453125 -17.703125 L 26.453125 -23.53125 L 11.765625 -23.53125 C 9.378906 -23.53125 7.304688 -24.410156 5.546875 -26.171875 C 3.796875 -27.929688 2.921875 -30.003906 2.921875 -32.390625 L 2.921875 -55.921875 C 2.921875 -58.304688 3.796875 -60.375 5.546875 -62.125 C 7.304688 -63.882812 9.378906 -64.765625 11.765625 -64.765625 L 41.796875 -64.765625 L 41.796875 -47.0625 L 20.609375 -47.0625 L 20.609375 -41.234375 L 35.296875 -41.234375 C 37.679688 -41.234375 39.753906 -40.351562 41.515625 -38.59375 C 43.273438 -36.84375 44.15625 -34.773438 44.15625 -32.390625 Z M 44.15625 -8.84375 "/></g></g></g><g fill="#1e1c1c" fill-opacity="1"><g transform="translate(95.445976, 216.60353)"><g><path d="M 49.984375 0 L 32.390625 0 L 20.609375 -24.375 L 20.609375 0 L 2.921875 0 L 2.921875 -64.765625 L 20.609375 -64.765625 L 32.390625 -40.390625 L 32.390625 -64.765625 L 49.984375 -64.765625 Z M 49.984375 0 "/></g></g></g><g fill="#1e1c1c" fill-opacity="1"><g transform="translate(148.346941, 216.60353)"><g><path d="M 26.453125 -35.296875 L 26.453125 -47.0625 L 20.609375 -47.0625 L 20.609375 -35.296875 Z M 44.15625 -26.453125 C 44.15625 -24.066406 43.273438 -22.007812 41.515625 -20.28125 C 39.753906 -18.5625 37.679688 -17.703125 35.296875 -17.703125 L 20.609375 -17.703125 L 20.609375 0 L 2.921875 0 L 2.921875 -64.765625 L 35.296875 -64.765625 C 37.679688 -64.765625 39.753906 -63.882812 41.515625 -62.125 C 43.273438 -60.375 44.15625 -58.304688 44.15625 -55.921875 Z M 44.15625 -26.453125 "/></g></g></g><g fill="#1e1c1c" fill-opacity="1"><g transform="translate(195.41187, 216.60353)"><g><path d="M 44.15625 0 L 2.921875 0 L 2.921875 -64.765625 L 44.15625 -64.765625 L 44.15625 -47.0625 L 20.609375 -47.0625 L 20.609375 -41.234375 L 38.21875 -41.234375 L 38.21875 -23.53125 L 20.609375 -23.53125 L 20.609375 -17.703125 L 44.15625 -17.703125 Z M 44.15625 0 "/></g></g></g><g fill="#1e1c1c" fill-opacity="1"><g transform="translate(242.476798, 216.60353)"><g><path d="M 26.453125 -29.375 L 26.453125 -47.0625 L 20.609375 -47.0625 L 20.609375 -29.375 Z M 44.15625 0 L 26.453125 0 L 26.453125 -11.765625 L 20.609375 -11.765625 L 20.609375 0 L 2.921875 0 L 2.921875 -55.921875 C 2.921875 -58.304688 3.796875 -60.375 5.546875 -62.125 C 7.304688 -63.882812 9.378906 -64.765625 11.765625 -64.765625 L 35.296875 -64.765625 C 37.679688 -64.765625 39.753906 -63.882812 41.515625 -62.125 C 43.273438 -60.375 44.15625 -58.304688 44.15625 -55.921875 Z M 44.15625 0 "/></g></g></g><g fill="#1e1c1c" fill-opacity="1"><g transform="translate(289.541726, 216.60353)"><g><path d="M 44.15625 0 L 26.453125 0 L 26.453125 -23.53125 L 20.609375 -23.53125 L 20.609375 0 L 2.921875 0 L 2.921875 -64.765625 L 20.609375 -64.765625 L 20.609375 -41.234375 L 26.453125 -41.234375 L 26.453125 -64.765625 L 44.15625 -64.765625 L 44.15625 -41.234375 C 44.15625 -38.847656 43.273438 -36.773438 41.515625 -35.015625 C 39.753906 -33.265625 37.679688 -32.390625 35.296875 -32.390625 C 37.679688 -32.390625 39.753906 -31.507812 41.515625 -29.75 C 43.273438 -27.988281 44.15625 -25.914062 44.15625 -23.53125 Z M 44.15625 0 "/></g></g></g><path stroke-linecap="butt" transform="matrix(1.277419, 0, 0, 1.277419, 15.272839, 117.086258)" fill="none" stroke-linejoin="miter" d="M 53.590604 66.072334 C 53.590604 67.943784 52.902571 69.570601 51.523447 70.949725 C 50.156554 72.316617 48.535854 72.998534 46.664404 72.998534 L 21.317264 72.998534 L 21.317264 59.146134 L 39.738204 59.146134 L 39.738204 54.577594 L 28.243464 54.577594 C 26.372014 54.577594 24.745198 53.892619 23.366073 52.525727 C 21.999181 51.146603 21.317264 49.522844 21.317264 47.651394 L 21.317264 29.227396 C 21.317264 27.359004 21.999181 25.738304 23.366073 24.371411 C 24.745198 22.992287 26.372014 22.301196 28.243464 22.301196 L 51.755849 22.301196 L 51.755849 36.153596 L 35.169664 36.153596 L 35.169664 40.725194 L 46.664404 40.725194 C 48.535854 40.725194 50.156554 41.413227 51.523447 42.792351 C 52.902571 44.162302 53.590604 45.779944 53.590604 47.651394 Z M 95.004082 72.998534 L 81.225072 72.998534 L 72.011544 53.910967 L 72.011544 72.998534 L 58.159144 72.998534 L 58.159144 22.301196 L 72.011544 22.301196 L 81.225072 41.391822 L 81.225072 22.301196 L 95.004082 22.301196 Z M 117.993562 45.367124 L 117.993562 36.153596 L 113.425022 36.153596 L 113.425022 45.367124 Z M 131.84902 52.293324 C 131.84902 54.164774 131.157929 55.776301 129.778805 57.130962 C 128.411913 58.476449 126.791212 59.146134 124.919762 59.146134 L 113.425022 59.146134 L 113.425022 72.998534 L 99.572622 72.998534 L 99.572622 22.301196 L 124.919762 22.301196 C 126.791212 22.301196 128.411913 22.992287 129.778805 24.371411 C 131.157929 25.738304 131.84902 27.359004 131.84902 29.227396 Z M 168.690901 72.998534 L 136.414502 72.998534 L 136.414502 22.301196 L 168.690901 22.301196 L 168.690901 36.153596 L 150.26996 36.153596 L 150.26996 40.725194 L 164.04897 40.725194 L 164.04897 54.577594 L 150.26996 54.577594 L 150.26996 59.146134 L 168.690901 59.146134 Z M 191.683439 50.009054 L 191.683439 36.153596 L 187.111841 36.153596 L 187.111841 50.009054 Z M 205.535839 72.998534 L 191.683439 72.998534 L 191.683439 63.788064 L 187.111841 63.788064 L 187.111841 72.998534 L 173.259441 72.998534 L 173.259441 29.227396 C 173.259441 27.359004 173.944416 25.738304 175.311308 24.371411 C 176.690432 22.992287 178.314191 22.301196 180.185641 22.301196 L 198.609639 22.301196 C 200.481089 22.301196 202.098731 22.992287 203.465624 24.371411 C 204.844748 25.738304 205.535839 27.359004 205.535839 29.227396 Z M 242.377719 72.998534 L 228.525319 72.998534 L 228.525319 54.577594 L 223.956779 54.577594 L 223.956779 72.998534 L 210.104379 72.998534 L 210.104379 22.301196 L 223.956779 22.301196 L 223.956779 40.725194 L 228.525319 40.725194 L 228.525319 22.301196 L 242.377719 22.301196 L 242.377719 40.725194 C 242.377719 42.596644 241.689686 44.220402 240.310562 45.599527 C 238.943669 46.966419 237.322969 47.651394 235.451519 47.651394 C 237.322969 47.651394 238.943669 48.339427 240.310562 49.718552 C 241.689686 51.088502 242.377719 52.706144 242.377719 54.577594 Z M 242.377719 72.998534 " stroke="#1e1c1c" stroke-width="7.3693" stroke-opacity="1" stroke-miterlimit="4"/><g fill="#eeeae1" fill-opacity="1"><g transform="translate(39.58371, 210.33781)"><g><path d="M 44.15625 -8.84375 C 44.15625 -6.457031 43.273438 -4.382812 41.515625 -2.625 C 39.753906 -0.875 37.679688 0 35.296875 0 L 2.921875 0 L 2.921875 -17.703125 L 26.453125 -17.703125 L 26.453125 -23.53125 L 11.765625 -23.53125 C 9.378906 -23.53125 7.304688 -24.410156 5.546875 -26.171875 C 3.796875 -27.929688 2.921875 -30.003906 2.921875 -32.390625 L 2.921875 -55.921875 C 2.921875 -58.304688 3.796875 -60.375 5.546875 -62.125 C 7.304688 -63.882812 9.378906 -64.765625 11.765625 -64.765625 L 41.796875 -64.765625 L 41.796875 -47.0625 L 20.609375 -47.0625 L 20.609375 -41.234375 L 35.296875 -41.234375 C 37.679688 -41.234375 39.753906 -40.351562 41.515625 -38.59375 C 43.273438 -36.84375 44.15625 -34.773438 44.15625 -32.390625 Z M 44.15625 -8.84375 "/></g></g></g><g fill="#eeeae1" fill-opacity="1"><g transform="translate(86.648638, 210.33781)"><g><path d="M 49.984375 0 L 32.390625 0 L 20.609375 -24.375 L 20.609375 0 L 2.921875 0 L 2.921875 -64.765625 L 20.609375 -64.765625 L 32.390625 -40.390625 L 32.390625 -64.765625 L 49.984375 -64.765625 Z M 49.984375 0 "/></g></g></g><g fill="#eeeae1" fill-opacity="1"><g transform="translate(139.549603, 210.33781)"><g><path d="M 26.453125 -35.296875 L 26.453125 -47.0625 L 20.609375 -47.0625 L 20.609375 -35.296875 Z M 44.15625 -26.453125 C 44.15625 -24.066406 43.273438 -22.007812 41.515625 -20.28125 C 39.753906 -18.5625 37.679688 -17.703125 35.296875 -17.703125 L 20.609375 -17.703125 L 20.609375 0 L 2.921875 0 L 2.921875 -64.765625 L 35.296875 -64.765625 C 37.679688 -64.765625 39.753906 -63.882812 41.515625 -62.125 C 43.273438 -60.375 44.15625 -58.304688 44.15625 -55.921875 Z M 44.15625 -26.453125 "/></g></g></g><g fill="#eeeae1" fill-opacity="1"><g transform="translate(186.614531, 210.33781)"><g><path d="M 44.15625 0 L 2.921875 0 L 2.921875 -64.765625 L 44.15625 -64.765625 L 44.15625 -47.0625 L 20.609375 -47.0625 L 20.609375 -41.234375 L 38.21875 -41.234375 L 38.21875 -23.53125 L 20.609375 -23.53125 L 20.609375 -17.703125 L 44.15625 -17.703125 Z M 44.15625 0 "/></g></g></g><g fill="#eeeae1" fill-opacity="1"><g transform="translate(233.679459, 210.33781)"><g><path d="M 26.453125 -29.375 L 26.453125 -47.0625 L 20.609375 -47.0625 L 20.609375 -29.375 Z M 44.15625 0 L 26.453125 0 L 26.453125 -11.765625 L 20.609375 -11.765625 L 20.609375 0 L 2.921875 0 L 2.921875 -55.921875 C 2.921875 -58.304688 3.796875 -60.375 5.546875 -62.125 C 7.304688 -63.882812 9.378906 -64.765625 11.765625 -64.765625 L 35.296875 -64.765625 C 37.679688 -64.765625 39.753906 -63.882812 41.515625 -62.125 C 43.273438 -60.375 44.15625 -58.304688 44.15625 -55.921875 Z M 44.15625 0 "/></g></g></g><g fill="#eeeae1" fill-opacity="1"><g transform="translate(280.744387, 210.33781)"><g><path d="M 44.15625 0 L 26.453125 0 L 26.453125 -23.53125 L 20.609375 -23.53125 L 20.609375 0 L 2.921875 0 L 2.921875 -64.765625 L 20.609375 -64.765625 L 20.609375 -41.234375 L 26.453125 -41.234375 L 26.453125 -64.765625 L 44.15625 -64.765625 L 44.15625 -41.234375 C 44.15625 -38.847656 43.273438 -36.773438 41.515625 -35.015625 C 39.753906 -33.265625 37.679688 -32.390625 35.296875 -32.390625 C 37.679688 -32.390625 39.753906 -31.507812 41.515625 -29.75 C 43.273438 -27.988281 44.15625 -25.914062 44.15625 -23.53125 Z M 44.15625 0 "/></g></g></g><g fill="#000000" fill-opacity="1"><g transform="translate(110.179758, 242.669794)"><g><path d="M 9.15625 0.421875 C 7.644531 0.421875 6.234375 0.269531 4.921875 -0.03125 C 3.617188 -0.332031 2.632812 -0.671875 1.96875 -1.046875 L 1.96875 -5.71875 C 2.789062 -5.269531 3.867188 -4.863281 5.203125 -4.5 C 6.546875 -4.132812 7.875 -3.953125 9.1875 -3.953125 C 9.71875 -3.953125 10.101562 -4.023438 10.34375 -4.171875 C 10.582031 -4.328125 10.703125 -4.53125 10.703125 -4.78125 C 10.703125 -5.164062 10.441406 -5.445312 9.921875 -5.625 C 9.410156 -5.8125 8.570312 -6.003906 7.40625 -6.203125 C 6.101562 -6.410156 5.023438 -6.640625 4.171875 -6.890625 C 3.328125 -7.140625 2.59375 -7.539062 1.96875 -8.09375 C 1.351562 -8.65625 1.046875 -9.421875 1.046875 -10.390625 C 1.046875 -11.265625 1.300781 -12.046875 1.8125 -12.734375 C 2.320312 -13.421875 3.128906 -13.960938 4.234375 -14.359375 C 5.335938 -14.765625 6.734375 -14.96875 8.421875 -14.96875 C 9.972656 -14.96875 11.394531 -14.804688 12.6875 -14.484375 C 13.988281 -14.171875 14.957031 -13.8125 15.59375 -13.40625 L 15.59375 -8.53125 C 14.863281 -9.050781 13.804688 -9.523438 12.421875 -9.953125 C 11.035156 -10.390625 9.5625 -10.609375 8 -10.609375 C 7.4375 -10.609375 7.035156 -10.535156 6.796875 -10.390625 C 6.566406 -10.242188 6.453125 -10.03125 6.453125 -9.75 C 6.453125 -9.40625 6.695312 -9.148438 7.1875 -8.984375 C 7.675781 -8.816406 8.460938 -8.648438 9.546875 -8.484375 C 10.859375 -8.273438 11.953125 -8.039062 12.828125 -7.78125 C 13.710938 -7.53125 14.484375 -7.097656 15.140625 -6.484375 C 15.796875 -5.878906 16.125 -5.035156 16.125 -3.953125 C 16.125 -2.660156 15.550781 -1.609375 14.40625 -0.796875 C 13.257812 0.015625 11.507812 0.421875 9.15625 0.421875 Z M 9.15625 0.421875 "/></g></g></g><g fill="#000000" fill-opacity="1"><g transform="translate(129.411006, 242.669794)"><g><path d="M 6.546875 0 L 1.5625 0 L 1.5625 -14.5625 L 9.875 -14.5625 L 14.03125 -4.890625 L 14.25 -4.890625 L 14.25 -14.5625 L 19.234375 -14.5625 L 19.234375 0 L 10.921875 0 L 6.765625 -9.671875 L 6.546875 -9.671875 Z M 6.546875 0 "/></g></g></g><g fill="#000000" fill-opacity="1"><g transform="translate(152.280343, 242.669794)"><g><path d="M 6.765625 -6.03125 L 6.765625 -3.84375 L 15.078125 -3.84375 L 15.078125 0 L 1.5625 0 L 1.5625 -14.5625 L 14.65625 -14.5625 L 14.65625 -10.703125 L 6.765625 -10.703125 L 6.765625 -8.421875 L 13.828125 -8.421875 L 13.828125 -6.03125 Z M 6.765625 -6.03125 "/></g></g></g><g fill="#000000" fill-opacity="1"><g transform="translate(170.368192, 242.669794)"><g><path d="M 20.375 0 L 14.5625 0 L 13.375 -2.703125 L 7.015625 -2.703125 L 5.828125 0 L 0 0 L 6.765625 -14.5625 L 13.625 -14.5625 Z M 10.09375 -9.671875 L 8.0625 -5.09375 L 12.3125 -5.09375 L 10.296875 -9.671875 Z M 10.09375 -9.671875 "/></g></g></g><g fill="#000000" fill-opacity="1"><g transform="translate(192.821751, 242.669794)"><g><path d="M 6.765625 0 L 1.5625 0 L 1.5625 -14.5625 L 6.765625 -14.5625 L 6.765625 -8.5 L 6.859375 -8.5 L 13 -14.5625 L 19.65625 -14.5625 L 12.265625 -7.59375 L 12.265625 -7.484375 L 19.03125 0 L 12.484375 0 L 6.859375 -6.328125 L 6.765625 -6.328125 Z M 6.765625 0 "/></g></g></g><g fill="#000000" fill-opacity="1"><g transform="translate(214.131908, 242.669794)"><g><path d="M 6.765625 -6.03125 L 6.765625 -3.84375 L 15.078125 -3.84375 L 15.078125 0 L 1.5625 0 L 1.5625 -14.5625 L 14.65625 -14.5625 L 14.65625 -10.703125 L 6.765625 -10.703125 L 6.765625 -8.421875 L 13.828125 -8.421875 L 13.828125 -6.03125 Z M 6.765625 -6.03125 "/></g></g></g><g fill="#000000" fill-opacity="1"><g transform="translate(232.219751, 242.669794)"><g><path d="M 13.625 -6.03125 C 14.84375 -6.03125 15.769531 -5.742188 16.40625 -5.171875 C 17.039062 -4.609375 17.359375 -3.820312 17.359375 -2.8125 L 17.359375 0 L 12.171875 0 L 12.171875 -3.125 C 12.171875 -3.46875 12.039062 -3.742188 11.78125 -3.953125 C 11.519531 -4.160156 11.128906 -4.265625 10.609375 -4.265625 L 6.765625 -4.265625 L 6.765625 0 L 1.5625 0 L 1.5625 -14.5625 L 11.546875 -14.5625 C 12.984375 -14.5625 14.179688 -14.363281 15.140625 -13.96875 C 16.109375 -13.582031 16.820312 -13.050781 17.28125 -12.375 C 17.75 -11.707031 17.984375 -10.945312 17.984375 -10.09375 C 17.984375 -8.925781 17.597656 -7.988281 16.828125 -7.28125 C 16.066406 -6.582031 15 -6.234375 13.625 -6.234375 Z M 10.390625 -7.28125 C 11.171875 -7.28125 11.726562 -7.414062 12.0625 -7.6875 C 12.40625 -7.96875 12.578125 -8.382812 12.578125 -8.9375 C 12.578125 -9.5 12.40625 -9.914062 12.0625 -10.1875 C 11.726562 -10.46875 11.171875 -10.609375 10.390625 -10.609375 L 6.765625 -10.609375 L 6.765625 -7.28125 Z M 10.390625 -7.28125 "/></g></g></g><g clip-path="url(#79c6783aa3)"><path fill="#000000" d="M 28.625 197.476562 C 27.757812 204.777344 27.058594 205.476562 19.757812 206.34375 C 19.773438 206.34375 19.789062 206.347656 19.804688 206.347656 C 27.0625 207.210938 27.761719 207.921875 28.625 215.207031 C 29.488281 207.90625 30.1875 207.207031 37.488281 206.34375 C 30.1875 205.476562 29.488281 204.777344 28.625 197.476562 Z M 28.625 197.476562 " fill-opacity="1" fill-rule="nonzero"/></g><g clip-path="url(#b7b8a7be31)"><path fill="#000000" d="M 43.042969 215.21875 C 41.316406 229.824219 39.914062 231.226562 25.308594 232.953125 C 25.339844 232.957031 25.367188 232.960938 25.398438 232.964844 C 39.917969 234.691406 41.320312 236.117188 43.042969 250.691406 C 44.773438 236.085938 46.175781 234.683594 60.78125 232.953125 C 46.175781 231.226562 44.773438 229.824219 43.042969 215.21875 Z M 43.042969 215.21875 " fill-opacity="1" fill-rule="nonzero"/></g><g clip-path="url(#ac5089d005)"><path fill="#000000" d="M 346.363281 144.242188 C 345.5 151.542969 344.800781 152.242188 337.5 153.105469 C 337.515625 153.109375 337.53125 153.109375 337.546875 153.113281 C 344.804688 153.972656 345.503906 154.6875 346.363281 161.972656 C 347.230469 154.671875 347.929688 153.972656 355.230469 153.105469 C 347.929688 152.242188 347.230469 151.542969 346.363281 144.242188 Z M 346.363281 144.242188 " fill-opacity="1" fill-rule="nonzero"/></g><g clip-path="url(#a7ba5f45e5)"><path fill="#000000" d="M 334.421875 111.785156 C 332.695312 126.390625 331.292969 127.792969 316.6875 129.523438 C 316.714844 129.527344 316.746094 129.527344 316.777344 129.53125 C 331.296875 131.257812 332.695312 132.683594 334.421875 147.257812 C 336.152344 132.652344 337.550781 131.25 352.160156 129.523438 C 337.550781 127.792969 336.152344 126.390625 334.421875 111.785156 Z M 334.421875 111.785156 " fill-opacity="1" fill-rule="nonzero"/></g></svg>